<?xml version="1.0" encoding="UTF-8" standalone="no"?>
<!-- Created with Inkscape (http://www.inkscape.org/) -->

<svg
   xmlns:dc="http://purl.org/dc/elements/1.1/"
   xmlns:cc="http://creativecommons.org/ns#"
   xmlns:rdf="http://www.w3.org/1999/02/22-rdf-syntax-ns#"
   xmlns:svg="http://www.w3.org/2000/svg"
   xmlns="http://www.w3.org/2000/svg"
   xmlns:sodipodi="http://sodipodi.sourceforge.net/DTD/sodipodi-0.dtd"
   xmlns:inkscape="http://www.inkscape.org/namespaces/inkscape"
   version="1.1"
   id="svg2"
   xml:space="preserve"
   width="2560"
   height="2560"
   viewBox="0 0 2560 2560"
   sodipodi:docname="logo.svg"
   inkscape:version="0.92.5 (2060ec1f9f, 2020-04-08)"><metadata
     id="metadata8"><rdf:RDF><cc:Work
         rdf:about=""><dc:format>image/svg+xml</dc:format><dc:type
           rdf:resource="http://purl.org/dc/dcmitype/StillImage" /><dc:title></dc:title></cc:Work></rdf:RDF></metadata><defs
     id="defs6"><clipPath
       clipPathUnits="userSpaceOnUse"
       id="clipPath18"><path
         d="M 0,1920 H 1920 V 0 H 0 Z"
         id="path16"
         inkscape:connector-curvature="0" /></clipPath><clipPath
       clipPathUnits="userSpaceOnUse"
       id="clipPath26"><path
         d="M 0,1920 H 1920 V 0 H 0 Z"
         id="path24"
         inkscape:connector-curvature="0" /></clipPath></defs><sodipodi:namedview
     pagecolor="#ffffff"
     bordercolor="#666666"
     borderopacity="1"
     objecttolerance="10"
     gridtolerance="10"
     guidetolerance="10"
     inkscape:pageopacity="0"
     inkscape:pageshadow="2"
     inkscape:window-width="1366"
     inkscape:window-height="714"
     id="namedview4"
     showgrid="false"
     inkscape:zoom="0.13037281"
     inkscape:cx="449.56983"
     inkscape:cy="780.03986"
     inkscape:window-x="0"
     inkscape:window-y="32"
     inkscape:window-maximized="1"
     inkscape:current-layer="g10" /><g
     id="g10"
     inkscape:groupmode="layer"
     inkscape:label="monogram-2670684"
     transform="matrix(1.3333333,0,0,-1.3333333,0,2560)"><g
       id="g34"
       transform="matrix(1.5991329,0,0,1.5991329,1085.9301,1621.2146)"><path
         d="m 0,0 c -4.253,0 -7.695,3.445 -7.695,7.695 0,25.46 20.711,46.17 46.17,46.17 4.254,0 7.695,-3.445 7.695,-7.695 0,-4.249 -3.441,-7.695 -7.695,-7.695 C 21.5,38.475 7.695,24.667 7.695,7.695 7.695,3.445 4.253,0 0,0"
         style="fill:#000000;fill-opacity:1;fill-rule:nonzero;stroke:none"
         id="path36"
         inkscape:connector-curvature="0" /></g><g
       id="g38"
       transform="matrix(1.5991329,0,0,1.5991329,1208.9842,1621.2146)"><path
         d="m 0,0 c -4.253,0 -7.695,3.445 -7.695,7.695 0,16.972 -13.805,30.78 -30.78,30.78 -4.254,0 -7.695,3.446 -7.695,7.695 0,4.25 3.441,7.695 7.695,7.695 25.459,0 46.17,-20.71 46.17,-46.17 C 7.695,3.445 4.253,0 0,0"
         style="fill:#000000;fill-opacity:1;fill-rule:nonzero;stroke:none"
         id="path40"
         inkscape:connector-curvature="0" /></g><g
       id="g42"
       transform="matrix(1.5991329,0,0,1.5991329,1147.4571,1559.6876)"><path
         d="m 0,0 c -25.46,0 -46.17,20.71 -46.17,46.17 0,4.25 3.441,7.695 7.695,7.695 4.253,0 7.695,-3.445 7.695,-7.695 0,-16.972 13.804,-30.78 30.78,-30.78 4.253,0 7.695,-3.445 7.695,-7.695 C 7.695,3.445 4.253,0 0,0"
         style="fill:#000000;fill-opacity:1;fill-rule:nonzero;stroke:none"
         id="path44"
         inkscape:connector-curvature="0" /></g><g
       id="g46"
       transform="matrix(1.5991329,0,0,1.5991329,1085.9301,1498.1606)"><path
         d="m 0,0 c -46.674,0 -84.645,37.972 -84.645,84.645 0,4.25 3.445,7.695 7.695,7.695 4.249,0 7.695,-3.445 7.695,-7.695 C -69.255,46.46 -38.19,15.39 0,15.39 4.253,15.39 7.695,11.945 7.695,7.695 7.695,3.446 4.253,0 0,0"
         style="fill:#000000;fill-opacity:1;fill-rule:nonzero;stroke:none"
         id="path48"
         inkscape:connector-curvature="0" /></g><g
       id="g50"
       transform="matrix(1.5991329,0,0,1.5991329,1270.511,1375.1069)"><path
         d="m 0,0 c -4.253,0 -7.695,3.445 -7.695,7.695 0,38.186 -31.066,69.255 -69.255,69.255 -4.254,0 -7.695,3.446 -7.695,7.695 0,4.25 3.441,7.695 7.695,7.695 C -30.277,92.34 7.695,54.369 7.695,7.695 7.695,3.445 4.253,0 0,0"
         style="fill:#000000;fill-opacity:1;fill-rule:nonzero;stroke:none"
         id="path52"
         inkscape:connector-curvature="0" /></g><g
       id="g54"
       transform="matrix(1.5991329,0,0,1.5991329,1147.4571,1498.1606)"><path
         d="m 0,0 h -38.475 c -4.254,0 -7.695,3.446 -7.695,7.695 0,4.25 3.441,7.695 7.695,7.695 H 0 c 4.253,0 7.695,-3.445 7.695,-7.695 C 7.695,3.446 4.253,0 0,0"
         style="fill:#000000;fill-opacity:1;fill-rule:nonzero;stroke:none"
         id="path56"
         inkscape:connector-curvature="0" /></g><g
       id="g58"
       transform="matrix(1.5991329,0,0,1.5991329,962.87642,1621.2146)"><path
         d="m 0,0 c -4.25,0 -7.695,3.445 -7.695,7.695 0,16.972 -13.808,30.78 -30.78,30.78 -4.25,0 -7.695,3.446 -7.695,7.695 0,4.25 3.445,7.695 7.695,7.695 25.46,0 46.17,-20.71 46.17,-46.17 C 7.695,3.445 4.25,0 0,0"
         style="fill:#000000;fill-opacity:1;fill-rule:nonzero;stroke:none"
         id="path60"
         inkscape:connector-curvature="0" /></g><g
       id="g62"
       transform="matrix(1.5991329,0,0,1.5991329,962.87642,1621.2146)"><path
         d="m 0,0 c -4.25,0 -7.695,3.445 -7.695,7.695 0,25.46 20.71,46.17 46.17,46.17 4.254,0 7.695,-3.445 7.695,-7.695 0,-4.249 -3.441,-7.695 -7.695,-7.695 C 21.5,38.475 7.695,24.667 7.695,7.695 7.695,3.445 4.25,0 0,0"
         style="fill:#000000;fill-opacity:1;fill-rule:nonzero;stroke:none"
         id="path64"
         inkscape:connector-curvature="0" /></g><g
       id="g66"
       transform="matrix(1.5991329,0,0,1.5991329,901.34943,1682.7413)"><path
         d="m 0,0 c -4.25,0 -7.695,3.446 -7.695,7.695 0,4.25 3.445,7.695 7.695,7.695 14.56,0 30.78,28.443 30.78,69.255 0,4.25 3.446,7.695 7.695,7.695 4.25,0 7.695,-3.445 7.695,-7.695 C 46.17,37.179 25.888,0 0,0"
         style="fill:#000000;fill-opacity:1;fill-rule:nonzero;stroke:none"
         id="path68"
         inkscape:connector-curvature="0" /></g><g
       id="g70"
       transform="matrix(1.5991329,0,0,1.5991329,1024.4034,1682.7413)"><path
         d="m 0,0 c -25.888,0 -46.17,37.179 -46.17,84.645 0,4.25 3.445,7.695 7.695,7.695 4.249,0 7.695,-3.445 7.695,-7.695 C -30.78,43.833 -14.556,15.39 0,15.39 4.253,15.39 7.695,11.945 7.695,7.695 7.695,3.446 4.253,0 0,0"
         style="fill:#000000;fill-opacity:1;fill-rule:nonzero;stroke:none"
         id="path72"
         inkscape:connector-curvature="0" /></g><g
       id="g74"
       transform="matrix(1.5991329,0,0,1.5991329,839.82245,1498.1606)"><path
         d="m 0,0 c -4.25,0 -7.695,3.446 -7.695,7.695 0,4.25 3.445,7.695 7.695,7.695 38.186,0 69.255,31.07 69.255,69.255 0,4.25 3.446,7.695 7.695,7.695 4.25,0 7.695,-3.445 7.695,-7.695 C 84.645,37.972 46.674,0 0,0"
         style="fill:#000000;fill-opacity:1;fill-rule:nonzero;stroke:none"
         id="path76"
         inkscape:connector-curvature="0" /></g><g
       id="g78"
       transform="matrix(1.5991329,0,0,1.5991329,655.24176,1375.1069)"><path
         d="m 0,0 c -4.25,0 -7.695,3.445 -7.695,7.695 0,46.674 37.972,84.645 84.645,84.645 4.25,0 7.695,-3.445 7.695,-7.695 C 84.645,80.396 81.2,76.95 76.95,76.95 38.765,76.95 7.695,45.881 7.695,7.695 7.695,3.445 4.25,0 0,0"
         style="fill:#000000;fill-opacity:1;fill-rule:nonzero;stroke:none"
         id="path80"
         inkscape:connector-curvature="0" /></g><g
       id="g82"
       transform="matrix(1.5991329,0,0,1.5991329,839.82245,1498.1606)"><path
         d="m 0,0 h -38.475 c -4.25,0 -7.695,3.446 -7.695,7.695 0,4.25 3.445,7.695 7.695,7.695 H 0 c 4.25,0 7.695,-3.445 7.695,-7.695 C 7.695,3.446 4.25,0 0,0"
         style="fill:#000000;fill-opacity:1;fill-rule:nonzero;stroke:none"
         id="path84"
         inkscape:connector-curvature="0" /></g><g
       id="g86"
       transform="matrix(1.5991329,0,0,1.5991329,1172.0679,1559.6876)"><path
         d="m 0,0 h -15.39 c -4.253,0 -7.695,3.445 -7.695,7.695 0,4.25 3.442,7.695 7.695,7.695 H 0 c 4.253,0 7.695,-3.445 7.695,-7.695 C 7.695,3.445 4.253,0 0,0"
         style="fill:#000000;fill-opacity:1;fill-rule:nonzero;stroke:none"
         id="path88"
         inkscape:connector-curvature="0" /></g><g
       id="g90"
       transform="matrix(1.5991329,0,0,1.5991329,1270.511,1375.1069)"><path
         d="m 0,0 c -4.253,0 -7.695,3.445 -7.695,7.695 0,58.397 -24.671,107.731 -53.865,107.731 -4.254,0 -7.695,3.445 -7.695,7.695 0,4.249 3.441,7.695 7.695,7.695 38.836,0 69.255,-54.08 69.255,-123.121 C 7.695,3.445 4.253,0 0,0"
         style="fill:#000000;fill-opacity:1;fill-rule:nonzero;stroke:none"
         id="path92"
         inkscape:connector-curvature="0" /></g><g
       id="g94"
       transform="matrix(1.5991329,0,0,1.5991329,839.82245,1621.2146)"><path
         d="m 0,0 c -4.25,0 -7.695,3.445 -7.695,7.695 0,16.972 -13.808,30.78 -30.78,30.78 -4.25,0 -7.695,3.446 -7.695,7.695 0,4.25 3.445,7.695 7.695,7.695 25.46,0 46.17,-20.71 46.17,-46.17 C 7.695,3.445 4.25,0 0,0"
         style="fill:#000000;fill-opacity:1;fill-rule:nonzero;stroke:none"
         id="path96"
         inkscape:connector-curvature="0" /></g><g
       id="g98"
       transform="matrix(1.5991329,0,0,1.5991329,716.76871,1621.2146)"><path
         d="m 0,0 c -4.25,0 -7.695,3.445 -7.695,7.695 0,25.46 20.71,46.17 46.17,46.17 4.25,0 7.695,-3.445 7.695,-7.695 0,-4.249 -3.445,-7.695 -7.695,-7.695 C 21.503,38.475 7.695,24.667 7.695,7.695 7.695,3.445 4.25,0 0,0"
         style="fill:#000000;fill-opacity:1;fill-rule:nonzero;stroke:none"
         id="path100"
         inkscape:connector-curvature="0" /></g><g
       id="g102"
       transform="matrix(1.5991329,0,0,1.5991329,778.29567,1559.6876)"><path
         d="m 0,0 c -4.25,0 -7.695,3.445 -7.695,7.695 0,4.25 3.445,7.695 7.695,7.695 16.972,0 30.78,13.808 30.78,30.78 0,4.25 3.446,7.695 7.695,7.695 4.25,0 7.695,-3.445 7.695,-7.695 C 46.17,20.71 25.46,0 0,0"
         style="fill:#000000;fill-opacity:1;fill-rule:nonzero;stroke:none"
         id="path104"
         inkscape:connector-curvature="0" /></g><g
       id="g106"
       transform="matrix(1.5991329,0,0,1.5991329,778.29567,1559.6876)"><path
         d="m 0,0 h -15.39 c -4.25,0 -7.695,3.445 -7.695,7.695 0,4.25 3.445,7.695 7.695,7.695 H 0 c 4.25,0 7.695,-3.445 7.695,-7.695 C 7.695,3.445 4.25,0 0,0"
         style="fill:#000000;fill-opacity:1;fill-rule:nonzero;stroke:none"
         id="path108"
         inkscape:connector-curvature="0" /></g><g
       id="g110"
       transform="matrix(1.5991329,0,0,1.5991329,655.24176,1375.1069)"><path
         d="m 0,0 c -4.25,0 -7.695,3.445 -7.695,7.695 0,69.041 30.419,123.121 69.255,123.121 4.25,0 7.695,-3.446 7.695,-7.695 0,-4.25 -3.445,-7.695 -7.695,-7.695 C 32.362,115.426 7.695,66.092 7.695,7.695 7.695,3.445 4.25,0 0,0"
         style="fill:#000000;fill-opacity:1;fill-rule:nonzero;stroke:none"
         id="path112"
         inkscape:connector-curvature="0" /></g><g
       id="g114"
       transform="matrix(1.5991329,0,0,1.5991329,1270.511,1375.1069)"><path
         d="m 0,0 c -4.253,0 -7.695,3.445 -7.695,7.695 0,46.674 37.972,84.645 84.645,84.645 4.254,0 7.695,-3.445 7.695,-7.695 0,-4.249 -3.441,-7.695 -7.695,-7.695 C 38.761,76.95 7.695,45.881 7.695,7.695 7.695,3.445 4.253,0 0,0"
         style="fill:#000000;fill-opacity:1;fill-rule:nonzero;stroke:none"
         id="path116"
         inkscape:connector-curvature="0" /></g><g
       id="g118"
       transform="matrix(1.5991329,0,0,1.5991329,655.24176,1375.1069)"><path
         d="m 0,0 c -4.25,0 -7.695,3.445 -7.695,7.695 0,38.186 -31.069,69.255 -69.255,69.255 -4.25,0 -7.695,3.446 -7.695,7.695 0,4.25 3.445,7.695 7.695,7.695 C -30.277,92.34 7.695,54.369 7.695,7.695 7.695,3.445 4.25,0 0,0"
         style="fill:#000000;fill-opacity:1;fill-rule:nonzero;stroke:none"
         id="path120"
         inkscape:connector-curvature="0" /></g><g
       id="g122"
       transform="matrix(1.5991329,0,0,1.5991329,802.90633,1633.52)"><path
         d="m 0,0 c 0,-8.5 -6.89,-15.39 -15.39,-15.39 -8.5,0 -15.39,6.89 -15.39,15.39 0,8.5 6.89,15.39 15.39,15.39 C -6.89,15.39 0,8.5 0,0"
         style="fill:#000000;fill-opacity:1;fill-rule:nonzero;stroke:none"
         id="path124"
         inkscape:connector-curvature="0" /></g><g
       id="g126"
       transform="matrix(1.5991329,0,0,1.5991329,778.29567,1645.8253)"><path
         d="m 0,0 c -4.242,0 -7.695,-3.453 -7.695,-7.695 0,-4.242 3.453,-7.695 7.695,-7.695 4.242,0 7.695,3.453 7.695,7.695 C 7.695,-3.453 4.242,0 0,0 m 0,-30.78 c -12.73,0 -23.085,10.355 -23.085,23.085 C -23.085,5.035 -12.73,15.39 0,15.39 12.73,15.39 23.085,5.035 23.085,-7.695 23.085,-20.425 12.73,-30.78 0,-30.78"
         style="fill:#000000;fill-opacity:1;fill-rule:nonzero;stroke:none"
         id="path128"
         inkscape:connector-curvature="0" /></g><g
       id="g130"
       transform="matrix(1.5991329,0,0,1.5991329,1172.0679,1633.52)"><path
         d="m 0,0 c 0,-8.5 -6.89,-15.39 -15.39,-15.39 -8.5,0 -15.39,6.89 -15.39,15.39 0,8.5 6.89,15.39 15.39,15.39 C -6.89,15.39 0,8.5 0,0"
         style="fill:#000000;fill-opacity:1;fill-rule:nonzero;stroke:none"
         id="path132"
         inkscape:connector-curvature="0" /></g><g
       id="g134"
       transform="matrix(1.5991329,0,0,1.5991329,1147.4571,1645.8253)"><path
         d="m 0,0 c -4.246,0 -7.695,-3.453 -7.695,-7.695 0,-4.242 3.449,-7.695 7.695,-7.695 4.246,0 7.695,3.453 7.695,7.695 C 7.695,-3.453 4.246,0 0,0 m 0,-30.78 c -12.73,0 -23.085,10.355 -23.085,23.085 C -23.085,5.035 -12.73,15.39 0,15.39 12.73,15.39 23.085,5.035 23.085,-7.695 23.085,-20.425 12.73,-30.78 0,-30.78"
         style="fill:#000000;fill-opacity:1;fill-rule:nonzero;stroke:none"
         id="path136"
         inkscape:connector-curvature="0" /></g><g
       id="g138"
       transform="matrix(1.5991329,0,0,1.5991329,1147.4571,218.40069)"><path
         d="m 0,0 c -25.46,0 -46.17,20.71 -46.17,46.17 0,4.254 3.441,7.695 7.695,7.695 4.253,0 7.695,-3.441 7.695,-7.695 0,-16.975 13.804,-30.78 30.78,-30.78 4.253,0 7.695,-3.442 7.695,-7.695 C 7.695,3.442 4.253,0 0,0"
         style="fill:#000000;fill-opacity:1;fill-rule:nonzero;stroke:none"
         id="path140"
         inkscape:connector-curvature="0" /></g><g
       id="g142"
       transform="matrix(1.5991329,0,0,1.5991329,1147.4571,218.40069)"><path
         d="m 0,0 c -4.253,0 -7.695,3.442 -7.695,7.695 0,4.253 3.442,7.695 7.695,7.695 16.976,0 30.78,13.805 30.78,30.78 0,4.254 3.442,7.695 7.695,7.695 4.254,0 7.695,-3.441 7.695,-7.695 C 46.17,20.71 25.46,0 0,0"
         style="fill:#000000;fill-opacity:1;fill-rule:nonzero;stroke:none"
         id="path144"
         inkscape:connector-curvature="0" /></g><g
       id="g146"
       transform="matrix(1.5991329,0,0,1.5991329,1085.9301,279.92765)"><path
         d="m 0,0 c -4.253,0 -7.695,3.442 -7.695,7.695 0,25.46 20.711,46.17 46.17,46.17 4.254,0 7.695,-3.441 7.695,-7.695 0,-4.253 -3.441,-7.695 -7.695,-7.695 C 21.5,38.475 7.695,24.671 7.695,7.695 7.695,3.442 4.253,0 0,0"
         style="fill:#000000;fill-opacity:1;fill-rule:nonzero;stroke:none"
         id="path148"
         inkscape:connector-curvature="0" /></g><g
       id="g150"
       transform="matrix(1.5991329,0,0,1.5991329,962.87642,279.92765)"><path
         d="m 0,0 c -4.25,0 -7.695,3.442 -7.695,7.695 0,46.674 37.972,84.645 84.645,84.645 4.254,0 7.695,-3.441 7.695,-7.695 0,-4.253 -3.441,-7.695 -7.695,-7.695 C 38.761,76.95 7.695,45.885 7.695,7.695 7.695,3.442 4.25,0 0,0"
         style="fill:#000000;fill-opacity:1;fill-rule:nonzero;stroke:none"
         id="path152"
         inkscape:connector-curvature="0" /></g><g
       id="g154"
       transform="matrix(1.5991329,0,0,1.5991329,1147.4571,402.98157)"><path
         d="m 0,0 c -4.253,0 -7.695,3.442 -7.695,7.695 0,4.253 3.442,7.695 7.695,7.695 38.19,0 69.255,31.066 69.255,69.255 0,4.254 3.442,7.695 7.695,7.695 4.254,0 7.695,-3.441 7.695,-7.695 C 84.645,37.972 46.674,0 0,0"
         style="fill:#000000;fill-opacity:1;fill-rule:nonzero;stroke:none"
         id="path156"
         inkscape:connector-curvature="0" /></g><g
       id="g158"
       transform="matrix(1.5991329,0,0,1.5991329,1147.4571,402.98157)"><path
         d="m 0,0 h -38.475 c -4.254,0 -7.695,3.442 -7.695,7.695 0,4.253 3.441,7.695 7.695,7.695 H 0 c 4.253,0 7.695,-3.442 7.695,-7.695 C 7.695,3.442 4.253,0 0,0"
         style="fill:#000000;fill-opacity:1;fill-rule:nonzero;stroke:none"
         id="path160"
         inkscape:connector-curvature="0" /></g><g
       id="g162"
       transform="matrix(1.5991329,0,0,1.5991329,901.34943,218.40069)"><path
         d="m 0,0 c -4.25,0 -7.695,3.442 -7.695,7.695 0,4.253 3.445,7.695 7.695,7.695 16.972,0 30.78,13.805 30.78,30.78 0,4.254 3.446,7.695 7.695,7.695 4.25,0 7.695,-3.441 7.695,-7.695 C 46.17,20.71 25.46,0 0,0"
         style="fill:#000000;fill-opacity:1;fill-rule:nonzero;stroke:none"
         id="path164"
         inkscape:connector-curvature="0" /></g><g
       id="g166"
       transform="matrix(1.5991329,0,0,1.5991329,1024.4034,218.40069)"><path
         d="m 0,0 c -25.46,0 -46.17,20.71 -46.17,46.17 0,4.254 3.445,7.695 7.695,7.695 4.249,0 7.695,-3.441 7.695,-7.695 0,-16.975 13.804,-30.78 30.78,-30.78 4.253,0 7.695,-3.442 7.695,-7.695 C 7.695,3.442 4.253,0 0,0"
         style="fill:#000000;fill-opacity:1;fill-rule:nonzero;stroke:none"
         id="path168"
         inkscape:connector-curvature="0" /></g><g
       id="g170"
       transform="matrix(1.5991329,0,0,1.5991329,962.87642,95.346936)"><path
         d="m 0,0 c -4.25,0 -7.695,3.442 -7.695,7.695 0,40.812 -16.22,69.255 -30.78,69.255 -4.25,0 -7.695,3.442 -7.695,7.695 0,4.254 3.445,7.695 7.695,7.695 25.888,0 46.17,-37.182 46.17,-84.645 C 7.695,3.442 4.25,0 0,0"
         style="fill:#000000;fill-opacity:1;fill-rule:nonzero;stroke:none"
         id="path172"
         inkscape:connector-curvature="0" /></g><g
       id="g174"
       transform="matrix(1.5991329,0,0,1.5991329,962.87642,95.346936)"><path
         d="m 0,0 c -4.25,0 -7.695,3.442 -7.695,7.695 0,47.463 20.282,84.645 46.17,84.645 4.254,0 7.695,-3.441 7.695,-7.695 0,-4.253 -3.441,-7.695 -7.695,-7.695 C 23.919,76.95 7.695,48.507 7.695,7.695 7.695,3.442 4.25,0 0,0"
         style="fill:#000000;fill-opacity:1;fill-rule:nonzero;stroke:none"
         id="path176"
         inkscape:connector-curvature="0" /></g><g
       id="g178"
       transform="matrix(1.5991329,0,0,1.5991329,962.87642,279.92765)"><path
         d="m 0,0 c -4.25,0 -7.695,3.442 -7.695,7.695 0,38.19 -31.069,69.255 -69.255,69.255 -4.25,0 -7.695,3.442 -7.695,7.695 0,4.254 3.445,7.695 7.695,7.695 C -30.277,92.34 7.695,54.369 7.695,7.695 7.695,3.442 4.25,0 0,0"
         style="fill:#000000;fill-opacity:1;fill-rule:nonzero;stroke:none"
         id="path180"
         inkscape:connector-curvature="0" /></g><g
       id="g182"
       transform="matrix(1.5991329,0,0,1.5991329,778.29567,402.98157)"><path
         d="m 0,0 c -46.674,0 -84.645,37.972 -84.645,84.645 0,4.254 3.445,7.695 7.695,7.695 4.249,0 7.695,-3.441 7.695,-7.695 C -69.255,46.456 -38.186,15.39 0,15.39 4.25,15.39 7.695,11.948 7.695,7.695 7.695,3.442 4.25,0 0,0"
         style="fill:#000000;fill-opacity:1;fill-rule:nonzero;stroke:none"
         id="path184"
         inkscape:connector-curvature="0" /></g><g
       id="g186"
       transform="matrix(1.5991329,0,0,1.5991329,839.82245,402.98157)"><path
         d="m 0,0 h -38.475 c -4.25,0 -7.695,3.442 -7.695,7.695 0,4.253 3.445,7.695 7.695,7.695 H 0 c 4.25,0 7.695,-3.442 7.695,-7.695 C 7.695,3.442 4.25,0 0,0"
         style="fill:#000000;fill-opacity:1;fill-rule:nonzero;stroke:none"
         id="path188"
         inkscape:connector-curvature="0" /></g><g
       id="g190"
       transform="matrix(1.5991329,0,0,1.5991329,1172.0679,341.45461)"><path
         d="m 0,0 h -15.39 c -4.253,0 -7.695,3.442 -7.695,7.695 0,4.253 3.442,7.695 7.695,7.695 H 0 c 4.253,0 7.695,-3.442 7.695,-7.695 C 7.695,3.442 4.253,0 0,0"
         style="fill:#000000;fill-opacity:1;fill-rule:nonzero;stroke:none"
         id="path192"
         inkscape:connector-curvature="0" /></g><g
       id="g194"
       transform="matrix(1.5991329,0,0,1.5991329,1172.0679,341.45461)"><path
         d="m 0,0 c -4.253,0 -7.695,3.442 -7.695,7.695 0,4.253 3.442,7.695 7.695,7.695 29.195,0 53.865,49.334 53.865,107.731 0,4.253 3.442,7.695 7.695,7.695 4.254,0 7.695,-3.442 7.695,-7.695 C 69.255,54.083 38.836,0 0,0"
         style="fill:#000000;fill-opacity:1;fill-rule:nonzero;stroke:none"
         id="path196"
         inkscape:connector-curvature="0" /></g><g
       id="g198"
       transform="matrix(1.5991329,0,0,1.5991329,778.29567,218.40069)"><path
         d="m 0,0 c -4.25,0 -7.695,3.442 -7.695,7.695 0,4.253 3.445,7.695 7.695,7.695 16.972,0 30.78,13.805 30.78,30.78 0,4.254 3.446,7.695 7.695,7.695 4.25,0 7.695,-3.441 7.695,-7.695 C 46.17,20.71 25.46,0 0,0"
         style="fill:#000000;fill-opacity:1;fill-rule:nonzero;stroke:none"
         id="path200"
         inkscape:connector-curvature="0" /></g><g
       id="g202"
       transform="matrix(1.5991329,0,0,1.5991329,778.29567,218.40069)"><path
         d="m 0,0 c -25.46,0 -46.17,20.71 -46.17,46.17 0,4.254 3.445,7.695 7.695,7.695 4.249,0 7.695,-3.441 7.695,-7.695 0,-16.975 13.808,-30.78 30.78,-30.78 4.25,0 7.695,-3.442 7.695,-7.695 C 7.695,3.442 4.25,0 0,0"
         style="fill:#000000;fill-opacity:1;fill-rule:nonzero;stroke:none"
         id="path204"
         inkscape:connector-curvature="0" /></g><g
       id="g206"
       transform="matrix(1.5991329,0,0,1.5991329,839.82245,279.92765)"><path
         d="m 0,0 c -4.25,0 -7.695,3.442 -7.695,7.695 0,16.976 -13.808,30.78 -30.78,30.78 -4.25,0 -7.695,3.442 -7.695,7.695 0,4.254 3.445,7.695 7.695,7.695 25.46,0 46.17,-20.71 46.17,-46.17 C 7.695,3.442 4.25,0 0,0"
         style="fill:#000000;fill-opacity:1;fill-rule:nonzero;stroke:none"
         id="path208"
         inkscape:connector-curvature="0" /></g><g
       id="g210"
       transform="matrix(1.5991329,0,0,1.5991329,778.29567,341.45461)"><path
         d="m 0,0 h -15.39 c -4.25,0 -7.695,3.442 -7.695,7.695 0,4.253 3.445,7.695 7.695,7.695 H 0 c 4.25,0 7.695,-3.442 7.695,-7.695 C 7.695,3.442 4.25,0 0,0"
         style="fill:#000000;fill-opacity:1;fill-rule:nonzero;stroke:none"
         id="path212"
         inkscape:connector-curvature="0" /></g><g
       id="g214"
       transform="matrix(1.5991329,0,0,1.5991329,753.68486,341.45461)"><path
         d="m 0,0 c -38.836,0 -69.255,54.083 -69.255,123.121 0,4.253 3.445,7.695 7.695,7.695 4.249,0 7.695,-3.442 7.695,-7.695 C -53.865,64.724 -29.198,15.39 0,15.39 4.25,15.39 7.695,11.948 7.695,7.695 7.695,3.442 4.25,0 0,0"
         style="fill:#000000;fill-opacity:1;fill-rule:nonzero;stroke:none"
         id="path216"
         inkscape:connector-curvature="0" /></g><g
       id="g218"
       transform="matrix(1.5991329,0,0,1.5991329,1393.5649,402.98157)"><path
         d="m 0,0 c -46.674,0 -84.645,37.972 -84.645,84.645 0,4.254 3.441,7.695 7.695,7.695 4.253,0 7.695,-3.441 7.695,-7.695 C -69.255,46.456 -38.19,15.39 0,15.39 4.253,15.39 7.695,11.948 7.695,7.695 7.695,3.442 4.253,0 0,0"
         style="fill:#000000;fill-opacity:1;fill-rule:nonzero;stroke:none"
         id="path220"
         inkscape:connector-curvature="0" /></g><g
       id="g222"
       transform="matrix(1.5991329,0,0,1.5991329,532.188,402.98157)"><path
         d="m 0,0 c -4.25,0 -7.695,3.442 -7.695,7.695 0,4.253 3.445,7.695 7.695,7.695 38.186,0 69.255,31.066 69.255,69.255 0,4.254 3.446,7.695 7.695,7.695 4.25,0 7.695,-3.441 7.695,-7.695 C 84.645,37.972 46.674,0 0,0"
         style="fill:#000000;fill-opacity:1;fill-rule:nonzero;stroke:none"
         id="path224"
         inkscape:connector-curvature="0" /></g><g
       id="g226"
       transform="matrix(1.5991329,0,0,1.5991329,802.90633,292.23298)"><path
         d="m 0,0 c 0,8.5 -6.89,15.39 -15.39,15.39 -8.5,0 -15.39,-6.89 -15.39,-15.39 0,-8.5 6.89,-15.39 15.39,-15.39 C -6.89,-15.39 0,-8.5 0,0"
         style="fill:#000000;fill-opacity:1;fill-rule:nonzero;stroke:none"
         id="path228"
         inkscape:connector-curvature="0" /></g><g
       id="g230"
       transform="matrix(1.5991329,0,0,1.5991329,778.29567,304.53846)"><path
         d="m 0,0 c -4.242,0 -7.695,-3.449 -7.695,-7.695 0,-4.246 3.453,-7.695 7.695,-7.695 4.242,0 7.695,3.449 7.695,7.695 C 7.695,-3.449 4.242,0 0,0 m 0,-30.78 c -12.73,0 -23.085,10.355 -23.085,23.085 C -23.085,5.035 -12.73,15.39 0,15.39 12.73,15.39 23.085,5.035 23.085,-7.695 23.085,-20.425 12.73,-30.78 0,-30.78"
         style="fill:#000000;fill-opacity:1;fill-rule:nonzero;stroke:none"
         id="path232"
         inkscape:connector-curvature="0" /></g><g
       id="g234"
       transform="matrix(1.5991329,0,0,1.5991329,1172.0679,292.23298)"><path
         d="m 0,0 c 0,8.5 -6.89,15.39 -15.39,15.39 -8.5,0 -15.39,-6.89 -15.39,-15.39 0,-8.5 6.89,-15.39 15.39,-15.39 C -6.89,-15.39 0,-8.5 0,0"
         style="fill:#000000;fill-opacity:1;fill-rule:nonzero;stroke:none"
         id="path236"
         inkscape:connector-curvature="0" /></g><g
       id="g238"
       transform="matrix(1.5991329,0,0,1.5991329,1147.4571,304.53846)"><path
         d="m 0,0 c -4.246,0 -7.695,-3.449 -7.695,-7.695 0,-4.246 3.449,-7.695 7.695,-7.695 4.246,0 7.695,3.449 7.695,7.695 C 7.695,-3.449 4.246,0 0,0 m 0,-30.78 c -12.73,0 -23.085,10.355 -23.085,23.085 C -23.085,5.035 -12.73,15.39 0,15.39 12.73,15.39 23.085,5.035 23.085,-7.695 23.085,-20.425 12.73,-30.78 0,-30.78"
         style="fill:#000000;fill-opacity:1;fill-rule:nonzero;stroke:none"
         id="path240"
         inkscape:connector-curvature="0" /></g><g
       id="g242"
       transform="matrix(1.5991329,0,0,1.5991329,292.23284,1073.6251)"><path
         d="m 0,0 c -25.46,0 -46.17,20.71 -46.17,46.17 0,4.25 3.445,7.695 7.695,7.695 4.249,0 7.695,-3.445 7.695,-7.695 0,-16.972 13.808,-30.78 30.78,-30.78 4.25,0 7.695,-3.445 7.695,-7.695 C 7.695,3.445 4.25,0 0,0"
         style="fill:#000000;fill-opacity:1;fill-rule:nonzero;stroke:none"
         id="path244"
         inkscape:connector-curvature="0" /></g><g
       id="g246"
       transform="matrix(1.5991329,0,0,1.5991329,230.70604,1135.1519)"><path
         d="m 0,0 c -4.25,0 -7.695,3.446 -7.695,7.695 0,25.46 20.71,46.17 46.17,46.17 4.25,0 7.695,-3.445 7.695,-7.695 0,-4.249 -3.445,-7.695 -7.695,-7.695 C 21.503,38.475 7.695,24.667 7.695,7.695 7.695,3.446 4.25,0 0,0"
         style="fill:#000000;fill-opacity:1;fill-rule:nonzero;stroke:none"
         id="path248"
         inkscape:connector-curvature="0" /></g><g
       id="g250"
       transform="matrix(1.5991329,0,0,1.5991329,292.23284,1073.6251)"><path
         d="m 0,0 c -4.25,0 -7.695,3.445 -7.695,7.695 0,4.25 3.445,7.695 7.695,7.695 16.972,0 30.78,13.808 30.78,30.78 0,4.25 3.446,7.695 7.695,7.695 4.25,0 7.695,-3.445 7.695,-7.695 C 46.17,20.71 25.46,0 0,0"
         style="fill:#000000;fill-opacity:1;fill-rule:nonzero;stroke:none"
         id="path252"
         inkscape:connector-curvature="0" /></g><g
       id="g254"
       transform="matrix(1.5991329,0,0,1.5991329,292.23284,950.57118)"><path
         d="m 0,0 c -4.25,0 -7.695,3.445 -7.695,7.695 0,4.25 3.445,7.695 7.695,7.695 38.186,0 69.255,31.069 69.255,69.255 0,4.25 3.446,7.695 7.695,7.695 4.25,0 7.695,-3.445 7.695,-7.695 C 84.645,37.972 46.674,0 0,0"
         style="fill:#000000;fill-opacity:1;fill-rule:nonzero;stroke:none"
         id="path256"
         inkscape:connector-curvature="0" /></g><g
       id="g258"
       transform="matrix(1.5991329,0,0,1.5991329,415.28675,1135.1519)"><path
         d="m 0,0 c -4.25,0 -7.695,3.446 -7.695,7.695 0,46.674 37.972,84.645 84.645,84.645 4.25,0 7.695,-3.445 7.695,-7.695 C 84.645,80.396 81.2,76.95 76.95,76.95 38.764,76.95 7.695,45.881 7.695,7.695 7.695,3.446 4.25,0 0,0"
         style="fill:#000000;fill-opacity:1;fill-rule:nonzero;stroke:none"
         id="path260"
         inkscape:connector-curvature="0" /></g><g
       id="g262"
       transform="matrix(1.5991329,0,0,1.5991329,415.28675,1073.6251)"><path
         d="M 0,0 C -4.25,0 -7.695,3.445 -7.695,7.695 V 46.17 c 0,4.25 3.445,7.695 7.695,7.695 4.25,0 7.695,-3.445 7.695,-7.695 V 7.695 C 7.695,3.445 4.25,0 0,0"
         style="fill:#000000;fill-opacity:1;fill-rule:nonzero;stroke:none"
         id="path264"
         inkscape:connector-curvature="0" /></g><g
       id="g266"
       transform="matrix(1.5991329,0,0,1.5991329,230.70604,889.04419)"><path
         d="m 0,0 c -4.25,0 -7.695,3.442 -7.695,7.695 0,25.46 20.71,46.17 46.17,46.17 4.25,0 7.695,-3.445 7.695,-7.695 0,-4.249 -3.445,-7.695 -7.695,-7.695 C 21.503,38.475 7.695,24.671 7.695,7.695 7.695,3.442 4.25,0 0,0"
         style="fill:#000000;fill-opacity:1;fill-rule:nonzero;stroke:none"
         id="path268"
         inkscape:connector-curvature="0" /></g><g
       id="g270"
       transform="matrix(1.5991329,0,0,1.5991329,292.23284,950.57118)"><path
         d="m 0,0 c -25.46,0 -46.17,20.71 -46.17,46.17 0,4.25 3.445,7.695 7.695,7.695 4.249,0 7.695,-3.445 7.695,-7.695 0,-16.972 13.808,-30.78 30.78,-30.78 4.25,0 7.695,-3.445 7.695,-7.695 C 7.695,3.445 4.25,0 0,0"
         style="fill:#000000;fill-opacity:1;fill-rule:nonzero;stroke:none"
         id="path272"
         inkscape:connector-curvature="0" /></g><g
       id="g274"
       transform="matrix(1.5991329,0,0,1.5991329,230.70604,889.04419)"><path
         d="m 0,0 c -4.25,0 -7.695,3.442 -7.695,7.695 0,14.556 -28.443,30.78 -69.255,30.78 -4.25,0 -7.695,3.446 -7.695,7.695 0,4.25 3.445,7.695 7.695,7.695 47.466,0 84.645,-20.282 84.645,-46.17 C 7.695,3.442 4.25,0 0,0"
         style="fill:#000000;fill-opacity:1;fill-rule:nonzero;stroke:none"
         id="path276"
         inkscape:connector-curvature="0" /></g><g
       id="g278"
       transform="matrix(1.5991329,0,0,1.5991329,107.65212,950.57118)"><path
         d="m 0,0 c -4.25,0 -7.695,3.445 -7.695,7.695 0,4.25 3.445,7.695 7.695,7.695 40.812,0 69.255,16.22 69.255,30.78 0,4.25 3.446,7.695 7.695,7.695 4.25,0 7.695,-3.445 7.695,-7.695 C 84.645,20.282 47.466,0 0,0"
         style="fill:#000000;fill-opacity:1;fill-rule:nonzero;stroke:none"
         id="path280"
         inkscape:connector-curvature="0" /></g><g
       id="g282"
       transform="matrix(1.5991329,0,0,1.5991329,415.28675,827.51733)"><path
         d="m 0,0 c -4.25,0 -7.695,3.442 -7.695,7.695 0,38.19 -31.069,69.255 -69.255,69.255 -4.25,0 -7.695,3.446 -7.695,7.695 0,4.25 3.445,7.695 7.695,7.695 C -30.277,92.34 7.695,54.369 7.695,7.695 7.695,3.442 4.25,0 0,0"
         style="fill:#000000;fill-opacity:1;fill-rule:nonzero;stroke:none"
         id="path284"
         inkscape:connector-curvature="0" /></g><g
       id="g286"
       transform="matrix(1.5991329,0,0,1.5991329,538.34066,642.93656)"><path
         d="m 0,0 c -46.674,0 -84.645,37.972 -84.645,84.645 0,4.254 3.445,7.695 7.695,7.695 4.249,0 7.695,-3.441 7.695,-7.695 C -69.255,46.456 -38.186,15.39 0,15.39 4.25,15.39 7.695,11.948 7.695,7.695 7.695,3.442 4.25,0 0,0"
         style="fill:#000000;fill-opacity:1;fill-rule:nonzero;stroke:none"
         id="path288"
         inkscape:connector-curvature="0" /></g><g
       id="g290"
       transform="matrix(1.5991329,0,0,1.5991329,415.28675,765.99048)"><path
         d="M 0,0 C -4.25,0 -7.695,3.442 -7.695,7.695 V 46.17 c 0,4.254 3.445,7.695 7.695,7.695 4.25,0 7.695,-3.441 7.695,-7.695 V 7.695 C 7.695,3.442 4.25,0 0,0"
         style="fill:#000000;fill-opacity:1;fill-rule:nonzero;stroke:none"
         id="path292"
         inkscape:connector-curvature="0" /></g><g
       id="g294"
       transform="matrix(1.5991329,0,0,1.5991329,353.75995,1135.1519)"><path
         d="m 0,0 c -4.25,0 -7.695,3.446 -7.695,7.695 v 15.39 c 0,4.25 3.445,7.695 7.695,7.695 4.25,0 7.695,-3.445 7.695,-7.695 V 7.695 C 7.695,3.446 4.25,0 0,0"
         style="fill:#000000;fill-opacity:1;fill-rule:nonzero;stroke:none"
         id="path296"
         inkscape:connector-curvature="0" /></g><g
       id="g298"
       transform="matrix(1.5991329,0,0,1.5991329,353.75995,1159.7628)"><path
         d="m 0,0 c -4.25,0 -7.695,3.445 -7.695,7.695 0,38.836 54.079,69.255 123.121,69.255 4.249,0 7.695,-3.445 7.695,-7.695 0,-4.249 -3.446,-7.695 -7.695,-7.695 C 57.029,61.56 7.695,36.893 7.695,7.695 7.695,3.445 4.25,0 0,0"
         style="fill:#000000;fill-opacity:1;fill-rule:nonzero;stroke:none"
         id="path300"
         inkscape:connector-curvature="0" /></g><g
       id="g302"
       transform="matrix(1.5991329,0,0,1.5991329,230.70604,765.99048)"><path
         d="m 0,0 c -4.25,0 -7.695,3.442 -7.695,7.695 0,25.46 20.71,46.17 46.17,46.17 4.25,0 7.695,-3.441 7.695,-7.695 0,-4.253 -3.445,-7.695 -7.695,-7.695 C 21.503,38.475 7.695,24.671 7.695,7.695 7.695,3.442 4.25,0 0,0"
         style="fill:#000000;fill-opacity:1;fill-rule:nonzero;stroke:none"
         id="path304"
         inkscape:connector-curvature="0" /></g><g
       id="g306"
       transform="matrix(1.5991329,0,0,1.5991329,292.23284,704.46336)"><path
         d="m 0,0 c -25.46,0 -46.17,20.711 -46.17,46.17 0,4.254 3.445,7.695 7.695,7.695 4.249,0 7.695,-3.441 7.695,-7.695 0,-16.975 13.808,-30.78 30.78,-30.78 4.25,0 7.695,-3.442 7.695,-7.695 C 7.695,3.442 4.25,0 0,0"
         style="fill:#000000;fill-opacity:1;fill-rule:nonzero;stroke:none"
         id="path308"
         inkscape:connector-curvature="0" /></g><g
       id="g310"
       transform="matrix(1.5991329,0,0,1.5991329,353.75995,765.99048)"><path
         d="m 0,0 c -4.25,0 -7.695,3.442 -7.695,7.695 0,16.976 -13.808,30.78 -30.78,30.78 -4.25,0 -7.695,3.442 -7.695,7.695 0,4.254 3.445,7.695 7.695,7.695 25.46,0 46.17,-20.71 46.17,-46.17 C 7.695,3.442 4.25,0 0,0"
         style="fill:#000000;fill-opacity:1;fill-rule:nonzero;stroke:none"
         id="path312"
         inkscape:connector-curvature="0" /></g><g
       id="g314"
       transform="matrix(1.5991329,0,0,1.5991329,353.75995,741.37966)"><path
         d="m 0,0 c -4.25,0 -7.695,3.442 -7.695,7.695 v 15.39 c 0,4.253 3.445,7.695 7.695,7.695 4.25,0 7.695,-3.442 7.695,-7.695 V 7.695 C 7.695,3.442 4.25,0 0,0"
         style="fill:#000000;fill-opacity:1;fill-rule:nonzero;stroke:none"
         id="path316"
         inkscape:connector-curvature="0" /></g><g
       id="g318"
       transform="matrix(1.5991329,0,0,1.5991329,538.34066,642.93656)"><path
         d="m 0,0 c -69.041,0 -123.121,30.419 -123.121,69.255 0,4.254 3.446,7.695 7.695,7.695 4.25,0 7.695,-3.441 7.695,-7.695 C -107.731,40.061 -58.397,15.39 0,15.39 4.25,15.39 7.695,11.948 7.695,7.695 7.695,3.442 4.25,0 0,0"
         style="fill:#000000;fill-opacity:1;fill-rule:nonzero;stroke:none"
         id="path320"
         inkscape:connector-curvature="0" /></g><g
       id="g322"
       transform="matrix(1.5991329,0,0,1.5991329,538.34066,1258.2059)"><path
         d="m 0,0 c -46.674,0 -84.645,37.972 -84.645,84.645 0,4.25 3.445,7.695 7.695,7.695 4.249,0 7.695,-3.445 7.695,-7.695 C -69.255,46.459 -38.186,15.39 0,15.39 4.25,15.39 7.695,11.945 7.695,7.695 7.695,3.445 4.25,0 0,0"
         style="fill:#000000;fill-opacity:1;fill-rule:nonzero;stroke:none"
         id="path324"
         inkscape:connector-curvature="0" /></g><g
       id="g326"
       transform="matrix(1.5991329,0,0,1.5991329,415.28675,519.88265)"><path
         d="m 0,0 c -4.25,0 -7.695,3.442 -7.695,7.695 0,46.674 37.972,84.645 84.645,84.645 4.25,0 7.695,-3.441 7.695,-7.695 C 84.645,80.392 81.2,76.95 76.95,76.95 38.764,76.95 7.695,45.885 7.695,7.695 7.695,3.442 4.25,0 0,0"
         style="fill:#000000;fill-opacity:1;fill-rule:nonzero;stroke:none"
         id="path328"
         inkscape:connector-curvature="0" /></g><g
       id="g330"
       transform="matrix(1.5991329,0,0,1.5991329,292.23284,802.90646)"><path
         d="m 0,0 c 8.5,0 15.39,-6.89 15.39,-15.39 0,-8.5 -6.89,-15.39 -15.39,-15.39 -8.5,0 -15.39,6.89 -15.39,15.39 C -15.39,-6.89 -8.5,0 0,0"
         style="fill:#000000;fill-opacity:1;fill-rule:nonzero;stroke:none"
         id="path332"
         inkscape:connector-curvature="0" /></g><g
       id="g334"
       transform="matrix(1.5991329,0,0,1.5991329,292.23284,790.60114)"><path
         d="m 0,0 c -4.242,0 -7.695,-3.449 -7.695,-7.695 0,-4.246 3.453,-7.695 7.695,-7.695 4.242,0 7.695,3.449 7.695,7.695 C 7.695,-3.449 4.242,0 0,0 m 0,-30.78 c -12.73,0 -23.085,10.355 -23.085,23.085 C -23.085,5.035 -12.73,15.39 0,15.39 12.73,15.39 23.085,5.035 23.085,-7.695 23.085,-20.425 12.73,-30.78 0,-30.78"
         style="fill:#000000;fill-opacity:1;fill-rule:nonzero;stroke:none"
         id="path336"
         inkscape:connector-curvature="0" /></g><g
       id="g338"
       transform="matrix(1.5991329,0,0,1.5991329,292.23284,1172.068)"><path
         d="m 0,0 c 8.5,0 15.39,-6.89 15.39,-15.39 0,-8.5 -6.89,-15.39 -15.39,-15.39 -8.5,0 -15.39,6.89 -15.39,15.39 C -15.39,-6.89 -8.5,0 0,0"
         style="fill:#000000;fill-opacity:1;fill-rule:nonzero;stroke:none"
         id="path340"
         inkscape:connector-curvature="0" /></g><g
       id="g342"
       transform="matrix(1.5991329,0,0,1.5991329,292.23284,1159.7628)"><path
         d="m 0,0 c -4.242,0 -7.695,-3.453 -7.695,-7.695 0,-4.242 3.453,-7.695 7.695,-7.695 4.242,0 7.695,3.453 7.695,7.695 C 7.695,-3.453 4.242,0 0,0 m 0,-30.78 c -12.73,0 -23.085,10.355 -23.085,23.085 C -23.085,5.035 -12.73,15.39 0,15.39 12.73,15.39 23.085,5.035 23.085,-7.695 23.085,-20.425 12.73,-30.78 0,-30.78"
         style="fill:#000000;fill-opacity:1;fill-rule:nonzero;stroke:none"
         id="path344"
         inkscape:connector-curvature="0" /></g><g
       id="g346"
       transform="matrix(1.5991329,0,0,1.5991329,1633.5198,1073.6251)"><path
         d="m 0,0 c -4.253,0 -7.695,3.445 -7.695,7.695 0,4.25 3.442,7.695 7.695,7.695 16.976,0 30.78,13.808 30.78,30.78 0,4.25 3.442,7.695 7.695,7.695 4.254,0 7.695,-3.445 7.695,-7.695 C 46.17,20.71 25.46,0 0,0"
         style="fill:#000000;fill-opacity:1;fill-rule:nonzero;stroke:none"
         id="path348"
         inkscape:connector-curvature="0" /></g><g
       id="g350"
       transform="matrix(1.5991329,0,0,1.5991329,1695.0467,1135.1519)"><path
         d="m 0,0 c -4.253,0 -7.695,3.446 -7.695,7.695 0,16.972 -13.805,30.78 -30.78,30.78 -4.254,0 -7.695,3.446 -7.695,7.695 0,4.25 3.441,7.695 7.695,7.695 25.46,0 46.17,-20.71 46.17,-46.17 C 7.695,3.446 4.253,0 0,0"
         style="fill:#000000;fill-opacity:1;fill-rule:nonzero;stroke:none"
         id="path352"
         inkscape:connector-curvature="0" /></g><g
       id="g354"
       transform="matrix(1.5991329,0,0,1.5991329,1633.5198,1073.6251)"><path
         d="m 0,0 c -25.46,0 -46.17,20.71 -46.17,46.17 0,4.25 3.442,7.695 7.695,7.695 4.253,0 7.695,-3.445 7.695,-7.695 0,-16.972 13.804,-30.78 30.78,-30.78 4.253,0 7.695,-3.445 7.695,-7.695 C 7.695,3.445 4.253,0 0,0"
         style="fill:#000000;fill-opacity:1;fill-rule:nonzero;stroke:none"
         id="path356"
         inkscape:connector-curvature="0" /></g><g
       id="g358"
       transform="matrix(1.5991329,0,0,1.5991329,1633.5198,950.57118)"><path
         d="m 0,0 c -46.674,0 -84.645,37.972 -84.645,84.645 0,4.25 3.441,7.695 7.695,7.695 4.253,0 7.695,-3.445 7.695,-7.695 C -69.255,46.459 -38.19,15.39 0,15.39 4.253,15.39 7.695,11.945 7.695,7.695 7.695,3.445 4.253,0 0,0"
         style="fill:#000000;fill-opacity:1;fill-rule:nonzero;stroke:none"
         id="path360"
         inkscape:connector-curvature="0" /></g><g
       id="g362"
       transform="matrix(1.5991329,0,0,1.5991329,1510.466,1135.1519)"><path
         d="m 0,0 c -4.253,0 -7.695,3.446 -7.695,7.695 0,38.186 -31.066,69.255 -69.255,69.255 -4.254,0 -7.695,3.446 -7.695,7.695 0,4.25 3.441,7.695 7.695,7.695 C -30.277,92.34 7.695,54.369 7.695,7.695 7.695,3.446 4.253,0 0,0"
         style="fill:#000000;fill-opacity:1;fill-rule:nonzero;stroke:none"
         id="path364"
         inkscape:connector-curvature="0" /></g><g
       id="g366"
       transform="matrix(1.5991329,0,0,1.5991329,1510.466,1073.6251)"><path
         d="M 0,0 C -4.253,0 -7.695,3.445 -7.695,7.695 V 46.17 c 0,4.25 3.442,7.695 7.695,7.695 4.253,0 7.695,-3.445 7.695,-7.695 V 7.695 C 7.695,3.445 4.253,0 0,0"
         style="fill:#000000;fill-opacity:1;fill-rule:nonzero;stroke:none"
         id="path368"
         inkscape:connector-curvature="0" /></g><g
       id="g370"
       transform="matrix(1.5991329,0,0,1.5991329,1695.0467,889.04419)"><path
         d="m 0,0 c -4.253,0 -7.695,3.442 -7.695,7.695 0,16.976 -13.805,30.78 -30.78,30.78 -4.254,0 -7.695,3.446 -7.695,7.695 0,4.25 3.441,7.695 7.695,7.695 25.46,0 46.17,-20.71 46.17,-46.17 C 7.695,3.442 4.253,0 0,0"
         style="fill:#000000;fill-opacity:1;fill-rule:nonzero;stroke:none"
         id="path372"
         inkscape:connector-curvature="0" /></g><g
       id="g374"
       transform="matrix(1.5991329,0,0,1.5991329,1633.5198,950.57118)"><path
         d="m 0,0 c -4.253,0 -7.695,3.445 -7.695,7.695 0,4.25 3.442,7.695 7.695,7.695 16.976,0 30.78,13.808 30.78,30.78 0,4.25 3.442,7.695 7.695,7.695 4.254,0 7.695,-3.445 7.695,-7.695 C 46.17,20.71 25.46,0 0,0"
         style="fill:#000000;fill-opacity:1;fill-rule:nonzero;stroke:none"
         id="path376"
         inkscape:connector-curvature="0" /></g><g
       id="g378"
       transform="matrix(1.5991329,0,0,1.5991329,1695.0467,889.04419)"><path
         d="m 0,0 c -4.253,0 -7.695,3.442 -7.695,7.695 0,25.888 37.183,46.17 84.645,46.17 4.254,0 7.695,-3.445 7.695,-7.695 0,-4.249 -3.441,-7.695 -7.695,-7.695 C 36.138,38.475 7.695,22.251 7.695,7.695 7.695,3.442 4.253,0 0,0"
         style="fill:#000000;fill-opacity:1;fill-rule:nonzero;stroke:none"
         id="path380"
         inkscape:connector-curvature="0" /></g><g
       id="g382"
       transform="matrix(1.5991329,0,0,1.5991329,1818.1005,950.57118)"><path
         d="m 0,0 c -47.463,0 -84.645,20.282 -84.645,46.17 0,4.25 3.441,7.695 7.695,7.695 4.253,0 7.695,-3.445 7.695,-7.695 0,-14.56 28.443,-30.78 69.255,-30.78 4.253,0 7.695,-3.445 7.695,-7.695 C 7.695,3.445 4.253,0 0,0"
         style="fill:#000000;fill-opacity:1;fill-rule:nonzero;stroke:none"
         id="path384"
         inkscape:connector-curvature="0" /></g><g
       id="g386"
       transform="matrix(1.5991329,0,0,1.5991329,1510.466,827.51733)"><path
         d="m 0,0 c -4.253,0 -7.695,3.442 -7.695,7.695 0,46.674 37.972,84.645 84.645,84.645 4.254,0 7.695,-3.445 7.695,-7.695 0,-4.249 -3.441,-7.695 -7.695,-7.695 C 38.761,76.95 7.695,45.885 7.695,7.695 7.695,3.442 4.253,0 0,0"
         style="fill:#000000;fill-opacity:1;fill-rule:nonzero;stroke:none"
         id="path388"
         inkscape:connector-curvature="0" /></g><g
       id="g390"
       transform="matrix(1.5991329,0,0,1.5991329,1387.4123,642.93656)"><path
         d="m 0,0 c -4.253,0 -7.695,3.442 -7.695,7.695 0,4.253 3.442,7.695 7.695,7.695 38.19,0 69.255,31.066 69.255,69.255 0,4.254 3.442,7.695 7.695,7.695 4.254,0 7.695,-3.441 7.695,-7.695 C 84.645,37.972 46.674,0 0,0"
         style="fill:#000000;fill-opacity:1;fill-rule:nonzero;stroke:none"
         id="path392"
         inkscape:connector-curvature="0" /></g><g
       id="g394"
       transform="matrix(1.5991329,0,0,1.5991329,1510.466,765.99048)"><path
         d="M 0,0 C -4.253,0 -7.695,3.442 -7.695,7.695 V 46.17 c 0,4.254 3.442,7.695 7.695,7.695 4.253,0 7.695,-3.441 7.695,-7.695 V 7.695 C 7.695,3.442 4.253,0 0,0"
         style="fill:#000000;fill-opacity:1;fill-rule:nonzero;stroke:none"
         id="path396"
         inkscape:connector-curvature="0" /></g><g
       id="g398"
       transform="matrix(1.5991329,0,0,1.5991329,1571.993,1135.1519)"><path
         d="m 0,0 c -4.253,0 -7.695,3.446 -7.695,7.695 v 15.39 c 0,4.25 3.442,7.695 7.695,7.695 4.253,0 7.695,-3.445 7.695,-7.695 V 7.695 C 7.695,3.446 4.253,0 0,0"
         style="fill:#000000;fill-opacity:1;fill-rule:nonzero;stroke:none"
         id="path400"
         inkscape:connector-curvature="0" /></g><g
       id="g402"
       transform="matrix(1.5991329,0,0,1.5991329,1571.993,1159.7628)"><path
         d="m 0,0 c -4.253,0 -7.695,3.445 -7.695,7.695 0,29.198 -49.334,53.865 -107.731,53.865 -4.253,0 -7.695,3.446 -7.695,7.695 0,4.25 3.442,7.695 7.695,7.695 C -46.388,76.95 7.695,46.531 7.695,7.695 7.695,3.445 4.253,0 0,0"
         style="fill:#000000;fill-opacity:1;fill-rule:nonzero;stroke:none"
         id="path404"
         inkscape:connector-curvature="0" /></g><g
       id="g406"
       transform="matrix(1.5991329,0,0,1.5991329,1695.0467,765.99048)"><path
         d="m 0,0 c -4.253,0 -7.695,3.442 -7.695,7.695 0,16.976 -13.805,30.78 -30.78,30.78 -4.254,0 -7.695,3.442 -7.695,7.695 0,4.254 3.441,7.695 7.695,7.695 25.46,0 46.17,-20.71 46.17,-46.17 C 7.695,3.442 4.253,0 0,0"
         style="fill:#000000;fill-opacity:1;fill-rule:nonzero;stroke:none"
         id="path408"
         inkscape:connector-curvature="0" /></g><g
       id="g410"
       transform="matrix(1.5991329,0,0,1.5991329,1633.5198,704.46336)"><path
         d="m 0,0 c -4.253,0 -7.695,3.442 -7.695,7.695 0,4.253 3.442,7.695 7.695,7.695 16.976,0 30.78,13.805 30.78,30.78 0,4.254 3.442,7.695 7.695,7.695 4.254,0 7.695,-3.441 7.695,-7.695 C 46.17,20.711 25.46,0 0,0"
         style="fill:#000000;fill-opacity:1;fill-rule:nonzero;stroke:none"
         id="path412"
         inkscape:connector-curvature="0" /></g><g
       id="g414"
       transform="matrix(1.5991329,0,0,1.5991329,1571.993,765.99048)"><path
         d="m 0,0 c -4.253,0 -7.695,3.442 -7.695,7.695 0,25.46 20.71,46.17 46.17,46.17 4.253,0 7.695,-3.441 7.695,-7.695 0,-4.253 -3.442,-7.695 -7.695,-7.695 C 21.5,38.475 7.695,24.671 7.695,7.695 7.695,3.442 4.253,0 0,0"
         style="fill:#000000;fill-opacity:1;fill-rule:nonzero;stroke:none"
         id="path416"
         inkscape:connector-curvature="0" /></g><g
       id="g418"
       transform="matrix(1.5991329,0,0,1.5991329,1571.993,741.37966)"><path
         d="m 0,0 c -4.253,0 -7.695,3.442 -7.695,7.695 v 15.39 c 0,4.253 3.442,7.695 7.695,7.695 4.253,0 7.695,-3.442 7.695,-7.695 V 7.695 C 7.695,3.442 4.253,0 0,0"
         style="fill:#000000;fill-opacity:1;fill-rule:nonzero;stroke:none"
         id="path420"
         inkscape:connector-curvature="0" /></g><g
       id="g422"
       transform="matrix(1.5991329,0,0,1.5991329,1387.4123,642.93656)"><path
         d="m 0,0 c -4.253,0 -7.695,3.442 -7.695,7.695 0,4.253 3.442,7.695 7.695,7.695 58.397,0 107.73,24.671 107.73,53.865 0,4.254 3.442,7.695 7.696,7.695 4.253,0 7.694,-3.441 7.694,-7.695 C 123.12,30.419 69.037,0 0,0"
         style="fill:#000000;fill-opacity:1;fill-rule:nonzero;stroke:none"
         id="path424"
         inkscape:connector-curvature="0" /></g><g
       id="g426"
       transform="matrix(1.5991329,0,0,1.5991329,1387.4123,1258.2059)"><path
         d="m 0,0 c -4.253,0 -7.695,3.445 -7.695,7.695 0,4.25 3.442,7.695 7.695,7.695 38.19,0 69.255,31.069 69.255,69.255 0,4.25 3.442,7.695 7.695,7.695 4.254,0 7.695,-3.445 7.695,-7.695 C 84.645,37.972 46.674,0 0,0"
         style="fill:#000000;fill-opacity:1;fill-rule:nonzero;stroke:none"
         id="path428"
         inkscape:connector-curvature="0" /></g><g
       id="g430"
       transform="matrix(1.5991329,0,0,1.5991329,1510.466,519.88265)"><path
         d="m 0,0 c -4.253,0 -7.695,3.442 -7.695,7.695 0,38.19 -31.066,69.255 -69.255,69.255 -4.254,0 -7.695,3.442 -7.695,7.695 0,4.254 3.441,7.695 7.695,7.695 C -30.277,92.34 7.695,54.369 7.695,7.695 7.695,3.442 4.253,0 0,0"
         style="fill:#000000;fill-opacity:1;fill-rule:nonzero;stroke:none"
         id="path432"
         inkscape:connector-curvature="0" /></g><g
       id="g434"
       transform="matrix(1.5991329,0,0,1.5991329,1633.5198,802.90646)"><path
         d="m 0,0 c -8.5,0 -15.39,-6.89 -15.39,-15.39 0,-8.5 6.89,-15.39 15.39,-15.39 8.5,0 15.39,6.89 15.39,15.39 C 15.39,-6.89 8.5,0 0,0"
         style="fill:#000000;fill-opacity:1;fill-rule:nonzero;stroke:none"
         id="path436"
         inkscape:connector-curvature="0" /></g><g
       id="g438"
       transform="matrix(1.5991329,0,0,1.5991329,1633.5198,790.60114)"><path
         d="m 0,0 c -4.246,0 -7.695,-3.449 -7.695,-7.695 0,-4.246 3.449,-7.695 7.695,-7.695 4.246,0 7.695,3.449 7.695,7.695 C 7.695,-3.449 4.246,0 0,0 m 0,-30.78 c -12.73,0 -23.085,10.355 -23.085,23.085 C -23.085,5.035 -12.73,15.39 0,15.39 12.73,15.39 23.085,5.035 23.085,-7.695 23.085,-20.425 12.73,-30.78 0,-30.78"
         style="fill:#000000;fill-opacity:1;fill-rule:nonzero;stroke:none"
         id="path440"
         inkscape:connector-curvature="0" /></g><g
       id="g442"
       transform="matrix(1.5991329,0,0,1.5991329,1633.5198,1172.068)"><path
         d="m 0,0 c -8.5,0 -15.39,-6.89 -15.39,-15.39 0,-8.5 6.89,-15.39 15.39,-15.39 8.5,0 15.39,6.89 15.39,15.39 C 15.39,-6.89 8.5,0 0,0"
         style="fill:#000000;fill-opacity:1;fill-rule:nonzero;stroke:none"
         id="path444"
         inkscape:connector-curvature="0" /></g><g
       id="g446"
       transform="matrix(1.5991329,0,0,1.5991329,1633.5198,1159.7628)"><path
         d="m 0,0 c -4.246,0 -7.695,-3.453 -7.695,-7.695 0,-4.242 3.449,-7.695 7.695,-7.695 4.246,0 7.695,3.453 7.695,7.695 C 7.695,-3.453 4.246,0 0,0 m 0,-30.78 c -12.73,0 -23.085,10.355 -23.085,23.085 C -23.085,5.035 -12.73,15.39 0,15.39 12.73,15.39 23.085,5.035 23.085,-7.695 23.085,-20.425 12.73,-30.78 0,-30.78"
         style="fill:#000000;fill-opacity:1;fill-rule:nonzero;stroke:none"
         id="path448"
         inkscape:connector-curvature="0" /></g><g
       id="g450"
       transform="matrix(1.5991329,0,0,1.5991329,1208.9842,1313.5799)"><path
         d="m 0,0 h -307.801 c -4.25,0 -7.696,3.446 -7.696,7.695 0,4.25 3.446,7.695 7.696,7.695 H 0 c 4.253,0 7.695,-3.445 7.695,-7.695 C 7.695,3.446 4.253,0 0,0"
         style="fill:#000000;fill-opacity:1;fill-rule:nonzero;stroke:none"
         id="path452"
         inkscape:connector-curvature="0" /></g><g
       id="g454"
       transform="matrix(1.5991329,0,0,1.5991329,1208.9842,575.25695)"><path
         d="m 0,0 h -307.801 c -4.25,0 -7.696,3.442 -7.696,7.695 0,4.253 3.446,7.695 7.696,7.695 H 0 c 4.253,0 7.695,-3.442 7.695,-7.695 C 7.695,3.442 4.253,0 0,0"
         style="fill:#000000;fill-opacity:1;fill-rule:nonzero;stroke:none"
         id="path456"
         inkscape:connector-curvature="0" /></g><g
       id="g458"
       transform="matrix(1.5991329,0,0,1.5991329,593.7148,698.31086)"><path
         d="m 0,0 c -4.25,0 -7.695,3.442 -7.695,7.695 v 307.801 c 0,4.25 3.445,7.695 7.695,7.695 4.25,0 7.695,-3.445 7.695,-7.695 V 7.695 C 7.695,3.442 4.25,0 0,0"
         style="fill:#000000;fill-opacity:1;fill-rule:nonzero;stroke:none"
         id="path460"
         inkscape:connector-curvature="0" /></g><g
       id="g462"
       transform="matrix(1.5991329,0,0,1.5991329,1332.038,686.00538)"><path
         d="m 0,0 c -4.253,0 -7.695,3.442 -7.695,7.695 v 315.497 c 0,4.249 3.442,7.694 7.695,7.694 4.253,0 7.695,-3.445 7.695,-7.694 V 7.695 C 7.695,3.442 4.253,0 0,0"
         style="fill:#000000;fill-opacity:1;fill-rule:nonzero;stroke:none"
         id="path464"
         inkscape:connector-curvature="0" /></g><g
       id="g466"
       transform="matrix(1.5991329,0,0,1.5991329,655.24176,1252.0532)"><path
         d="m 0,0 c -1.969,0 -3.938,0.751 -5.441,2.254 l -38.475,38.475 c -3.006,3.006 -3.006,7.876 0,10.882 3.006,3.006 7.876,3.006 10.881,0 L 5.441,13.136 C 8.447,10.13 8.447,5.26 5.441,2.254 3.938,0.751 1.969,0 0,0"
         style="fill:#000000;fill-opacity:1;fill-rule:nonzero;stroke:none"
         id="path468"
         inkscape:connector-curvature="0" /></g><g
       id="g470"
       transform="matrix(1.5991329,0,0,1.5991329,1270.511,1252.0532)"><path
         d="m 0,0 c -1.969,0 -3.938,0.751 -5.441,2.254 -3.005,3.006 -3.005,7.876 0,10.882 l 38.476,38.475 c 3.005,3.006 7.875,3.006 10.881,0 3.006,-3.006 3.006,-7.876 0,-10.882 L 5.441,2.254 C 3.938,0.751 1.969,0 0,0"
         style="fill:#000000;fill-opacity:1;fill-rule:nonzero;stroke:none"
         id="path472"
         inkscape:connector-curvature="0" /></g><g
       id="g474"
       transform="matrix(1.5991329,0,0,1.5991329,593.7148,575.25695)"><path
         d="m 0,0 c -1.969,0 -3.938,0.751 -5.441,2.254 -3.005,3.006 -3.005,7.876 0,10.882 l 38.476,38.475 c 3.005,3.006 7.875,3.006 10.881,0 3.006,-3.006 3.006,-7.876 0,-10.881 L 5.441,2.254 C 3.938,0.751 1.969,0 0,0"
         style="fill:#000000;fill-opacity:1;fill-rule:nonzero;stroke:none"
         id="path476"
         inkscape:connector-curvature="0" /></g><g
       id="g478"
       transform="matrix(1.5991329,0,0,1.5991329,1332.038,575.25695)"><path
         d="M 0,0 C -1.969,0 -3.938,0.751 -5.441,2.254 L -43.916,40.73 c -3.006,3.005 -3.006,7.875 0,10.881 3.006,3.006 7.876,3.006 10.881,0 L 5.441,13.136 C 8.447,10.13 8.447,5.26 5.441,2.254 3.938,0.751 1.969,0 0,0"
         style="fill:#000000;fill-opacity:1;fill-rule:nonzero;stroke:none"
         id="path480"
         inkscape:connector-curvature="0" /></g><g
       id="g482"
       transform="matrix(1.5991329,0,0,1.5991329,1398.2234,1383.4535)"><path
         d="M 0,0 C -2.099,-0.141 -4.249,0.578 -5.876,2.16 -8.921,5.123 -8.991,9.995 -6.032,13.04 L 66.12,87.281 c 2.967,3.053 7.827,3.122 10.88,0.156 3.046,-2.963 3.116,-7.835 0.156,-10.88 L 5.004,2.316 C 3.623,0.898 1.829,0.123 0,0"
         style="fill:#000000;fill-opacity:1;fill-rule:nonzero;stroke:none"
         id="path484"
         inkscape:connector-curvature="0" /></g><g
       id="g486"
       transform="matrix(1.5991329,0,0,1.5991329,532.188,1375.1069)"><path
         d="m 0,0 c -1.969,0 -3.938,0.751 -5.441,2.254 l -76.95,76.951 c -3.006,3.006 -3.006,7.875 0,10.881 3.006,3.006 7.875,3.006 10.881,0 L 5.441,13.136 C 8.446,10.13 8.446,5.26 5.441,2.254 3.938,0.751 1.969,0 0,0"
         style="fill:#000000;fill-opacity:1;fill-rule:nonzero;stroke:none"
         id="path488"
         inkscape:connector-curvature="0" /></g><g
       id="g490"
       transform="matrix(1.5991329,0,0,1.5991329,404.32182,394.53862)"><path
         d="m 0,0 c -1.829,0.122 -3.623,0.898 -5,2.315 -2.964,3.046 -2.893,7.921 0.155,10.881 L 69.394,85.35 c 3.049,2.967 7.921,2.897 10.88,-0.156 2.963,-3.045 2.893,-7.921 -0.156,-10.88 L 5.88,2.16 C 4.252,0.574 2.103,-0.141 0,0"
         style="fill:#000000;fill-opacity:1;fill-rule:nonzero;stroke:none"
         id="path492"
         inkscape:connector-curvature="0" /></g><g
       id="g494"
       transform="matrix(1.5991329,0,0,1.5991329,1516.6187,390.67607)"><path
         d="m 0,0 c -1.969,0 -3.938,0.751 -5.441,2.254 l -76.95,76.951 c -3.006,3.006 -3.006,7.875 0,10.881 3.006,3.006 7.875,3.006 10.881,0 L 5.441,13.136 C 8.447,10.13 8.447,5.26 5.441,2.254 3.938,0.751 1.969,0 0,0"
         style="fill:#000000;fill-opacity:1;fill-rule:nonzero;stroke:none"
         id="path496"
         inkscape:connector-curvature="0" /></g><g
       id="g498"
       transform="translate(798.6946,834.0782)" /><text
       xml:space="preserve"
       style="font-style:normal;font-variant:normal;font-weight:normal;font-stretch:normal;font-size:267.19021606px;line-height:1.25;font-family:Broadway;-inkscape-font-specification:Broadway;letter-spacing:0px;word-spacing:0px;fill:#000000;fill-opacity:1;stroke:none;stroke-width:2.7832315"
       x="678.78748"
       y="-867.35608"
       id="text1309"
       transform="scale(1,-1)"><tspan
         sodipodi:role="line"
         id="tspan1307"
         x="678.78748"
         y="-867.35608"
         style="font-style:normal;font-variant:normal;font-weight:normal;font-stretch:normal;font-family:Broadway;-inkscape-font-specification:Broadway;stroke-width:2.7832315">ARS</tspan></text>
</g></svg>